<?xml version="1.0" encoding="UTF-8" standalone="no"?>
<!DOCTYPE svg PUBLIC "-//W3C//DTD SVG 1.1//EN"
 "http://www.w3.org/Graphics/SVG/1.1/DTD/svg11.dtd">
<!-- Generated by graphviz version 2.36.0 (20140111.2315)
 -->
<!-- Title: %3 Pages: 1 -->
<svg width="382pt" height="1354pt"
 viewBox="0.00 0.00 382.00 1354.00" xmlns="http://www.w3.org/2000/svg" xmlns:xlink="http://www.w3.org/1999/xlink">
<g id="graph0" class="graph" transform="scale(1 1) rotate(0) translate(4 1350)">
<title>%3</title>
<polygon fill="white" stroke="none" points="-4,4 -4,-1350 378,-1350 378,4 -4,4"/>
<text text-anchor="middle" x="187" y="-7.8" font-family="Times,serif" font-size="14.00">RoCKIn@Home &#45; Benchmarking Box states throughout FBM2H</text>
<g id="clust1" class="cluster"><title>cluster_startup</title>
<polygon fill="none" stroke="black" points="58,-1155 58,-1338 316,-1338 316,-1155 58,-1155"/>
<text text-anchor="middle" x="287.5" y="-1322.8" font-family="Times,serif" font-size="14.00">start up</text>
</g>
<g id="clust2" class="cluster"><title>cluster_s0</title>
<polygon fill="none" stroke="black" points="57,-784 57,-1147 317,-1147 317,-784 57,-784"/>
<text text-anchor="middle" x="280.5" y="-1131.8" font-family="Times,serif" font-size="14.00">segment 0</text>
</g>
<g id="clust3" class="cluster"><title>cluster_si</title>
<polygon fill="none" stroke="black" points="58,-413 58,-776 316,-776 316,-413 58,-413"/>
<text text-anchor="middle" x="281" y="-760.8" font-family="Times,serif" font-size="14.00">segment i</text>
</g>
<g id="clust4" class="cluster"><title>cluster_sn</title>
<polygon fill="none" stroke="black" points="57,-312 57,-405 317,-405 317,-312 57,-312"/>
<text text-anchor="middle" x="280.5" y="-389.8" font-family="Times,serif" font-size="14.00">segment n</text>
</g>
<g id="clust5" class="cluster"><title>cluster_end</title>
<polygon fill="none" stroke="black" points="58,-31 58,-304 316,-304 316,-31 58,-31"/>
<text text-anchor="middle" x="298" y="-288.8" font-family="Times,serif" font-size="14.00">end</text>
</g>
<!-- start -->
<g id="node1" class="node"><title>start</title>
<ellipse fill="none" stroke="black" cx="187" cy="-1280" rx="120.25" ry="27"/>
<text text-anchor="middle" x="187" y="-1276.3" font-family="Times,serif" font-size="14.00">START</text>
</g>
<!-- waiting_client -->
<g id="node2" class="node"><title>waiting_client</title>
<ellipse fill="none" stroke="black" cx="187" cy="-1190" rx="120.25" ry="27"/>
<text text-anchor="middle" x="187" y="-1186.3" font-family="Times,serif" font-size="14.00">WAITING CLIENT</text>
</g>
<!-- start&#45;&gt;waiting_client -->
<g id="edge1" class="edge"><title>start&#45;&gt;waiting_client</title>
<path fill="none" stroke="black" d="M187,-1252.6C187,-1244.61 187,-1235.69 187,-1227.18"/>
<polygon fill="black" stroke="black" points="190.5,-1227.08 187,-1217.08 183.5,-1227.08 190.5,-1227.08"/>
</g>
<!-- ready -->
<g id="node3" class="node"><title>ready</title>
<ellipse fill="none" stroke="black" cx="187" cy="-1089" rx="120.25" ry="27"/>
<text text-anchor="middle" x="187" y="-1085.3" font-family="Times,serif" font-size="14.00">READY</text>
</g>
<!-- waiting_client&#45;&gt;ready -->
<g id="edge2" class="edge"><title>waiting_client&#45;&gt;ready</title>
<path fill="none" stroke="black" d="M187,-1162.99C187,-1151.82 187,-1138.58 187,-1126.46"/>
<polygon fill="black" stroke="black" points="190.5,-1126.18 187,-1116.18 183.5,-1126.18 190.5,-1126.18"/>
</g>
<!-- transmitting_goal -->
<g id="node4" class="node"><title>transmitting_goal</title>
<ellipse fill="none" stroke="black" cx="187" cy="-999" rx="120.25" ry="27"/>
<text text-anchor="middle" x="187" y="-1002.8" font-family="Times,serif" font-size="14.00">TRANSMITTING GOAL</text>
<text text-anchor="middle" x="187" y="-987.8" font-family="Times,serif" font-size="14.00">payload: waypoints list, etc</text>
</g>
<!-- ready&#45;&gt;transmitting_goal -->
<g id="edge3" class="edge"><title>ready&#45;&gt;transmitting_goal</title>
<path fill="none" stroke="black" d="M187,-1061.6C187,-1053.61 187,-1044.69 187,-1036.18"/>
<polygon fill="black" stroke="black" points="190.5,-1036.08 187,-1026.08 183.5,-1036.08 190.5,-1036.08"/>
</g>
<!-- executing_goal -->
<g id="node5" class="node"><title>executing_goal</title>
<ellipse fill="none" stroke="black" cx="187" cy="-909" rx="120.25" ry="27"/>
<text text-anchor="middle" x="187" y="-905.3" font-family="Times,serif" font-size="14.00">EXECUTING GOAL</text>
</g>
<!-- transmitting_goal&#45;&gt;executing_goal -->
<g id="edge4" class="edge"><title>transmitting_goal&#45;&gt;executing_goal</title>
<path fill="none" stroke="black" d="M187,-971.597C187,-963.607 187,-954.689 187,-946.176"/>
<polygon fill="black" stroke="black" points="190.5,-946.081 187,-936.081 183.5,-946.081 190.5,-946.081"/>
</g>
<!-- waiting_result -->
<g id="node6" class="node"><title>waiting_result</title>
<ellipse fill="none" stroke="black" cx="187" cy="-819" rx="121.619" ry="27"/>
<text text-anchor="middle" x="187" y="-822.8" font-family="Times,serif" font-size="14.00">WAITING RESULT</text>
<text text-anchor="middle" x="187" y="-807.8" font-family="Times,serif" font-size="14.00">payload: reached waypoint 0</text>
</g>
<!-- executing_goal&#45;&gt;waiting_result -->
<g id="edge5" class="edge"><title>executing_goal&#45;&gt;waiting_result</title>
<path fill="none" stroke="black" d="M187,-881.597C187,-873.607 187,-864.689 187,-856.176"/>
<polygon fill="black" stroke="black" points="190.5,-856.081 187,-846.081 183.5,-856.081 190.5,-856.081"/>
</g>
<!-- ready1 -->
<g id="node7" class="node"><title>ready1</title>
<ellipse fill="none" stroke="black" cx="187" cy="-718" rx="120.25" ry="27"/>
<text text-anchor="middle" x="187" y="-714.3" font-family="Times,serif" font-size="14.00">READY</text>
</g>
<!-- waiting_result&#45;&gt;ready1 -->
<g id="edge6" class="edge"><title>waiting_result&#45;&gt;ready1</title>
<path fill="none" stroke="black" d="M187,-791.989C187,-780.823 187,-767.581 187,-755.462"/>
<polygon fill="black" stroke="black" points="190.5,-755.181 187,-745.181 183.5,-755.181 190.5,-755.181"/>
</g>
<!-- transmitting_goal1 -->
<g id="node8" class="node"><title>transmitting_goal1</title>
<ellipse fill="none" stroke="black" cx="187" cy="-628" rx="120.25" ry="27"/>
<text text-anchor="middle" x="187" y="-631.8" font-family="Times,serif" font-size="14.00">TRANSMITTING GOAL</text>
<text text-anchor="middle" x="187" y="-616.8" font-family="Times,serif" font-size="14.00">ø</text>
</g>
<!-- ready1&#45;&gt;transmitting_goal1 -->
<g id="edge7" class="edge"><title>ready1&#45;&gt;transmitting_goal1</title>
<path fill="none" stroke="black" d="M187,-690.597C187,-682.607 187,-673.689 187,-665.176"/>
<polygon fill="black" stroke="black" points="190.5,-665.081 187,-655.081 183.5,-665.081 190.5,-665.081"/>
</g>
<!-- executing_goal1 -->
<g id="node9" class="node"><title>executing_goal1</title>
<ellipse fill="none" stroke="black" cx="187" cy="-538" rx="120.25" ry="27"/>
<text text-anchor="middle" x="187" y="-534.3" font-family="Times,serif" font-size="14.00">EXECUTING GOAL</text>
</g>
<!-- transmitting_goal1&#45;&gt;executing_goal1 -->
<g id="edge8" class="edge"><title>transmitting_goal1&#45;&gt;executing_goal1</title>
<path fill="none" stroke="black" d="M187,-600.597C187,-592.607 187,-583.689 187,-575.176"/>
<polygon fill="black" stroke="black" points="190.5,-575.081 187,-565.081 183.5,-575.081 190.5,-575.081"/>
</g>
<!-- waiting_result1 -->
<g id="node10" class="node"><title>waiting_result1</title>
<ellipse fill="none" stroke="black" cx="187" cy="-448" rx="120.25" ry="27"/>
<text text-anchor="middle" x="187" y="-451.8" font-family="Times,serif" font-size="14.00">WAITING RESULT</text>
<text text-anchor="middle" x="187" y="-436.8" font-family="Times,serif" font-size="14.00">payload: reached waypoint i</text>
</g>
<!-- executing_goal1&#45;&gt;waiting_result1 -->
<g id="edge9" class="edge"><title>executing_goal1&#45;&gt;waiting_result1</title>
<path fill="none" stroke="black" d="M187,-510.597C187,-502.607 187,-493.689 187,-485.176"/>
<polygon fill="black" stroke="black" points="190.5,-485.081 187,-475.081 183.5,-485.081 190.5,-485.081"/>
</g>
<!-- waiting_result2 -->
<g id="node12" class="node"><title>waiting_result2</title>
<ellipse fill="none" stroke="black" cx="187" cy="-347" rx="121.619" ry="27"/>
<text text-anchor="middle" x="187" y="-350.8" font-family="Times,serif" font-size="14.00">WAITING RESULT</text>
<text text-anchor="middle" x="187" y="-335.8" font-family="Times,serif" font-size="14.00">payload: reached waypoint n</text>
</g>
<!-- waiting_result1&#45;&gt;waiting_result2 -->
<g id="edge10" class="edge"><title>waiting_result1&#45;&gt;waiting_result2</title>
<path fill="none" stroke="black" stroke-dasharray="1,5" d="M187,-420.989C187,-409.823 187,-396.581 187,-384.462"/>
<polygon fill="black" stroke="black" points="190.5,-384.181 187,-374.181 183.5,-384.181 190.5,-384.181"/>
</g>
<!-- ready2 -->
<g id="node11" class="node"><title>ready2</title>
<ellipse fill="none" stroke="black" cx="187" cy="-246" rx="120.25" ry="27"/>
<text text-anchor="middle" x="187" y="-242.3" font-family="Times,serif" font-size="14.00">READY</text>
</g>
<!-- transmitting_score -->
<g id="node13" class="node"><title>transmitting_score</title>
<ellipse fill="none" stroke="black" cx="187" cy="-156" rx="120.25" ry="27"/>
<text text-anchor="middle" x="187" y="-159.8" font-family="Times,serif" font-size="14.00">TRANSMITTING SCORE</text>
<text text-anchor="middle" x="187" y="-144.8" font-family="Times,serif" font-size="14.00">payload: score</text>
</g>
<!-- ready2&#45;&gt;transmitting_score -->
<g id="edge12" class="edge"><title>ready2&#45;&gt;transmitting_score</title>
<path fill="none" stroke="black" d="M187,-218.597C187,-210.607 187,-201.689 187,-193.176"/>
<polygon fill="black" stroke="black" points="190.5,-193.081 187,-183.081 183.5,-193.081 190.5,-193.081"/>
</g>
<!-- waiting_result2&#45;&gt;ready2 -->
<g id="edge11" class="edge"><title>waiting_result2&#45;&gt;ready2</title>
<path fill="none" stroke="black" d="M187,-319.989C187,-308.823 187,-295.581 187,-283.462"/>
<polygon fill="black" stroke="black" points="190.5,-283.181 187,-273.181 183.5,-283.181 190.5,-283.181"/>
</g>
<!-- end -->
<g id="node14" class="node"><title>end</title>
<ellipse fill="none" stroke="black" cx="187" cy="-66" rx="120.25" ry="27"/>
<text text-anchor="middle" x="187" y="-62.3" font-family="Times,serif" font-size="14.00">END</text>
</g>
<!-- transmitting_score&#45;&gt;end -->
<g id="edge13" class="edge"><title>transmitting_score&#45;&gt;end</title>
<path fill="none" stroke="black" d="M187,-128.597C187,-120.607 187,-111.689 187,-103.176"/>
<polygon fill="black" stroke="black" points="190.5,-103.081 187,-93.081 183.5,-103.081 190.5,-103.081"/>
</g>
</g>
</svg>
